<svg width="24" height="24" viewBox="0 0 24 24" fill="none" xmlns="http://www.w3.org/2000/svg">
<path d="M7.64643 12.1465C7.84169 11.9512 8.15828 11.9512 8.35354 12.1465L10.5035 14.2964L15.7609 9.14294C15.9581 8.94963 16.2747 8.95279 16.468 9.14999C16.6613 9.3472 16.6581 9.66376 16.4609 9.85707L11.2035 15.0105C10.8119 15.3944 10.1842 15.3913 9.79639 15.0035L7.64643 12.8536C7.45117 12.6583 7.45117 12.3417 7.64643 12.1465Z" fill="#D01317"/>
<path fill-rule="evenodd" clip-rule="evenodd" d="M20 12C20 16.4183 16.4183 20 12 20C7.58172 20 4 16.4183 4 12C4 7.58172 7.58172 4 12 4C16.4183 4 20 7.58172 20 12ZM19 12C19 15.866 15.866 19 12 19C8.13401 19 5 15.866 5 12C5 8.13401 8.13401 5 12 5C15.866 5 19 8.13401 19 12Z" fill="#D01317"/>
</svg>
