<svg width="16" height="14" viewBox="0 0 16 14" fill="none" xmlns="http://www.w3.org/2000/svg">
<path fill-rule="evenodd" clip-rule="evenodd" d="M0 3.33325C0 1.81447 1.34315 0.583252 3 0.583252H13C14.6569 0.583252 16 1.81447 16 3.33325V10.6666C16 12.1854 14.6569 13.4166 13 13.4166H3C1.34315 13.4166 0 12.1854 0 10.6666V3.33325ZM3 1.49992H13C13.3724 1.49992 13.721 1.5932 14.0195 1.75567L9.08198 6.32223C8.49636 6.86385 7.54175 6.86515 6.95438 6.32513L1.98285 1.75438C2.28087 1.59271 2.62861 1.49992 3 1.49992ZM1.27622 2.40301C1.1007 2.67571 1 2.9937 1 3.33325V10.6666C1 11.6791 1.89543 12.4999 3 12.4999H13C14.1046 12.4999 15 11.6791 15 10.6666V3.33325C15 2.99461 14.8998 2.67741 14.7252 2.40519L10.4114 6.39486L13.9375 10.5156C14.108 10.7148 14.07 11.0029 13.8527 11.1591C13.6354 11.3153 13.3211 11.2805 13.1507 11.0814L9.69995 7.04869C8.74142 7.85022 7.26615 7.84526 6.31398 7.03238L2.84929 11.0814C2.67886 11.2805 2.36456 11.3153 2.14729 11.1591C1.93001 11.0029 1.89203 10.7148 2.06246 10.5156L5.60158 6.37967L1.27622 2.40301Z" fill="#D01317"/>
</svg>
