<svg width="15" height="15" viewBox="0 0 15 15" fill="none" xmlns="http://www.w3.org/2000/svg">
<path fill-rule="evenodd" clip-rule="evenodd" d="M5.32031 5.46776L4.8195 5.97233C4.68161 6.11126 4.65181 6.32513 4.75461 6.4917C5.68037 7.99166 7.00674 9.3213 8.50776 10.2465C8.67419 10.3491 8.88775 10.3191 9.02651 10.1814L9.53213 9.67953C10.1588 9.06384 10.9885 8.77084 11.8497 9.01975C12.4598 9.19606 13.0997 9.6212 13.8634 10.3577C14.2917 10.7706 14.5204 11.3534 14.4986 11.9461C14.4346 13.6847 12.3443 14.4552 10.8281 14.498C5.83819 14.6388 0.524735 9.26576 0.500057 4.31677C0.492524 2.81019 1.23178 0.637115 2.96878 0.506014C3.58877 0.45922 4.20878 0.687003 4.64218 1.13647C5.54579 2.07353 5.9892 2.82651 6.05902 3.56245C6.12642 4.27296 5.83702 4.9419 5.32031 5.46776ZM13.2561 10.9875C12.5344 10.2916 12.0174 9.979 11.6068 9.86035C11.1074 9.71603 10.5942 9.86348 10.1469 10.3022L10.1454 10.3037L9.64291 10.8024C9.23258 11.2097 8.57717 11.3171 8.04865 10.9914C6.43073 9.99413 5.0069 8.56647 4.01001 6.95126C3.68392 6.42291 3.79059 5.76688 4.19847 5.35594L4.6976 4.85305C5.06892 4.47449 5.22636 4.05024 5.18793 3.64508C5.14668 3.2103 4.87474 2.63819 4.0123 1.74383C3.76514 1.4875 3.40263 1.35076 3.03463 1.37853C2.57127 1.41351 2.17069 1.71342 1.85139 2.30902C1.52966 2.90914 1.37189 3.68112 1.37505 4.31241C1.38591 6.49165 2.57636 8.86315 4.4191 10.6956C6.26224 12.5285 8.61916 13.685 10.8034 13.6233C11.4469 13.6052 12.2003 13.429 12.7708 13.1C13.3316 12.7766 13.607 12.381 13.6242 11.9139C13.6371 11.5638 13.5009 11.2236 13.2561 10.9875Z" fill="#D01317"/>
<path d="M7.49997 1.37495C7.25835 1.37495 7.06247 1.57082 7.06247 1.81245C7.06247 2.05407 7.25835 2.24995 7.49997 2.24995C8.18941 2.24995 8.8721 2.38574 9.50906 2.64958C10.146 2.91342 10.7248 3.30013 11.2123 3.78764C11.6998 4.27514 12.0865 4.8539 12.3503 5.49086C12.6142 6.12782 12.75 6.81051 12.75 7.49995C12.75 7.74157 12.9458 7.93745 13.1875 7.93745C13.4291 7.93745 13.625 7.74157 13.625 7.49995C13.625 6.6956 13.4665 5.89913 13.1587 5.15601C12.8509 4.41289 12.3998 3.73768 11.831 3.16892C11.2622 2.60016 10.587 2.14899 9.84391 1.84118C9.10079 1.53337 8.30432 1.37495 7.49997 1.37495Z" fill="#D01317"/>
</svg>
